<mxfile host="app.diagrams.net" agent="Mozilla/5.0 (Windows NT 10.0; Win64; x64) AppleWebKit/537.36 (KHTML, like Gecko) Chrome/126.0.0.0 Safari/537.36" version="24.7.4">
  <diagram name="Page-1" id="b5b7bab2-c9e2-2cf4-8b2a-24fd1a2a6d21">
    <mxGraphModel dx="4759" dy="1644" grid="1" gridSize="10" guides="1" tooltips="1" connect="1" arrows="1" fold="1" page="1" pageScale="1" pageWidth="827" pageHeight="1169" background="none" math="0" shadow="0">
      <root>
        <mxCell id="0" />
        <mxCell id="1" parent="0" />
        <mxCell id="I-_VDOMfaE9_wKfrPcR0-2" value="" style="rounded=0;whiteSpace=wrap;html=1;" parent="1" vertex="1">
          <mxGeometry x="40" y="25" width="120" height="60" as="geometry" />
        </mxCell>
        <mxCell id="I-_VDOMfaE9_wKfrPcR0-3" value="" style="rounded=0;whiteSpace=wrap;html=1;" parent="1" vertex="1">
          <mxGeometry x="380" y="25" width="136" height="60" as="geometry" />
        </mxCell>
        <mxCell id="I-_VDOMfaE9_wKfrPcR0-4" value="" style="rounded=0;whiteSpace=wrap;html=1;" parent="1" vertex="1">
          <mxGeometry x="770" y="20" width="120" height="60" as="geometry" />
        </mxCell>
        <mxCell id="I-_VDOMfaE9_wKfrPcR0-5" value="&lt;span style=&quot;font-size: 24px;&quot;&gt;Student&lt;/span&gt;" style="text;html=1;align=center;verticalAlign=middle;whiteSpace=wrap;rounded=0;" parent="1" vertex="1">
          <mxGeometry x="40" y="40" width="100" height="30" as="geometry" />
        </mxCell>
        <mxCell id="I-_VDOMfaE9_wKfrPcR0-7" value="&lt;span style=&quot;font-size: 24px;&quot;&gt;OfficeStaff&lt;/span&gt;" style="text;html=1;align=center;verticalAlign=middle;whiteSpace=wrap;rounded=0;" parent="1" vertex="1">
          <mxGeometry x="414" y="40" width="60" height="30" as="geometry" />
        </mxCell>
        <mxCell id="I-_VDOMfaE9_wKfrPcR0-8" value="&lt;span style=&quot;font-size: 24px;&quot;&gt;Admin&lt;/span&gt;" style="text;html=1;align=center;verticalAlign=middle;whiteSpace=wrap;rounded=0;" parent="1" vertex="1">
          <mxGeometry x="800" y="35" width="60" height="30" as="geometry" />
        </mxCell>
        <mxCell id="I-_VDOMfaE9_wKfrPcR0-14" value="" style="endArrow=none;html=1;rounded=0;" parent="1" edge="1">
          <mxGeometry width="50" height="50" relative="1" as="geometry">
            <mxPoint x="170" y="200" as="sourcePoint" />
            <mxPoint x="-40" y="200" as="targetPoint" />
          </mxGeometry>
        </mxCell>
        <mxCell id="I-_VDOMfaE9_wKfrPcR0-31" value="Login" style="swimlane;fontStyle=0;childLayout=stackLayout;horizontal=1;startSize=30;horizontalStack=0;resizeParent=1;resizeParentMax=0;resizeLast=0;collapsible=1;marginBottom=0;whiteSpace=wrap;html=1;" parent="1" vertex="1">
          <mxGeometry x="-110" y="290" width="140" height="90" as="geometry" />
        </mxCell>
        <mxCell id="I-_VDOMfaE9_wKfrPcR0-33" value="Email" style="text;strokeColor=none;fillColor=none;align=left;verticalAlign=middle;spacingLeft=4;spacingRight=4;overflow=hidden;points=[[0,0.5],[1,0.5]];portConstraint=eastwest;rotatable=0;whiteSpace=wrap;html=1;" parent="I-_VDOMfaE9_wKfrPcR0-31" vertex="1">
          <mxGeometry y="30" width="140" height="30" as="geometry" />
        </mxCell>
        <mxCell id="I-_VDOMfaE9_wKfrPcR0-34" value="Password" style="text;strokeColor=none;fillColor=none;align=left;verticalAlign=middle;spacingLeft=4;spacingRight=4;overflow=hidden;points=[[0,0.5],[1,0.5]];portConstraint=eastwest;rotatable=0;whiteSpace=wrap;html=1;" parent="I-_VDOMfaE9_wKfrPcR0-31" vertex="1">
          <mxGeometry y="60" width="140" height="30" as="geometry" />
        </mxCell>
        <mxCell id="I-_VDOMfaE9_wKfrPcR0-35" value="" style="endArrow=classic;html=1;rounded=0;entryX=0.5;entryY=0;entryDx=0;entryDy=0;" parent="1" target="I-_VDOMfaE9_wKfrPcR0-31" edge="1">
          <mxGeometry width="50" height="50" relative="1" as="geometry">
            <mxPoint x="-40" y="200" as="sourcePoint" />
            <mxPoint x="-40" y="280" as="targetPoint" />
          </mxGeometry>
        </mxCell>
        <mxCell id="I-_VDOMfaE9_wKfrPcR0-42" value="" style="endArrow=classic;html=1;rounded=0;exitX=0.5;exitY=1;exitDx=0;exitDy=0;" parent="1" source="I-_VDOMfaE9_wKfrPcR0-3" edge="1">
          <mxGeometry width="50" height="50" relative="1" as="geometry">
            <mxPoint x="483" y="85" as="sourcePoint" />
            <mxPoint x="448" y="200" as="targetPoint" />
          </mxGeometry>
        </mxCell>
        <mxCell id="Mmktj13D3EzcHy1BEU7q-41" value="" style="endArrow=none;html=1;rounded=0;" edge="1" parent="1">
          <mxGeometry width="50" height="50" relative="1" as="geometry">
            <mxPoint x="553" y="200" as="sourcePoint" />
            <mxPoint x="343" y="200" as="targetPoint" />
          </mxGeometry>
        </mxCell>
        <mxCell id="Mmktj13D3EzcHy1BEU7q-48" value="Login" style="swimlane;fontStyle=0;childLayout=stackLayout;horizontal=1;startSize=30;horizontalStack=0;resizeParent=1;resizeParentMax=0;resizeLast=0;collapsible=1;marginBottom=0;whiteSpace=wrap;html=1;" vertex="1" parent="1">
          <mxGeometry x="270" y="290" width="140" height="90" as="geometry" />
        </mxCell>
        <mxCell id="Mmktj13D3EzcHy1BEU7q-50" value="Email" style="text;strokeColor=none;fillColor=none;align=left;verticalAlign=middle;spacingLeft=4;spacingRight=4;overflow=hidden;points=[[0,0.5],[1,0.5]];portConstraint=eastwest;rotatable=0;whiteSpace=wrap;html=1;" vertex="1" parent="Mmktj13D3EzcHy1BEU7q-48">
          <mxGeometry y="30" width="140" height="30" as="geometry" />
        </mxCell>
        <mxCell id="Mmktj13D3EzcHy1BEU7q-51" value="Password" style="text;strokeColor=none;fillColor=none;align=left;verticalAlign=middle;spacingLeft=4;spacingRight=4;overflow=hidden;points=[[0,0.5],[1,0.5]];portConstraint=eastwest;rotatable=0;whiteSpace=wrap;html=1;" vertex="1" parent="Mmktj13D3EzcHy1BEU7q-48">
          <mxGeometry y="60" width="140" height="30" as="geometry" />
        </mxCell>
        <mxCell id="Mmktj13D3EzcHy1BEU7q-52" value="" style="endArrow=classic;html=1;rounded=0;entryX=0.5;entryY=0;entryDx=0;entryDy=0;" edge="1" parent="1">
          <mxGeometry width="50" height="50" relative="1" as="geometry">
            <mxPoint x="339.17" y="200" as="sourcePoint" />
            <mxPoint x="339.17" y="290" as="targetPoint" />
          </mxGeometry>
        </mxCell>
        <mxCell id="Mmktj13D3EzcHy1BEU7q-56" value="" style="endArrow=none;html=1;rounded=0;" edge="1" parent="1">
          <mxGeometry width="50" height="50" relative="1" as="geometry">
            <mxPoint x="930" y="200" as="sourcePoint" />
            <mxPoint x="720" y="200" as="targetPoint" />
          </mxGeometry>
        </mxCell>
        <mxCell id="Mmktj13D3EzcHy1BEU7q-63" value="Login" style="swimlane;fontStyle=0;childLayout=stackLayout;horizontal=1;startSize=30;horizontalStack=0;resizeParent=1;resizeParentMax=0;resizeLast=0;collapsible=1;marginBottom=0;whiteSpace=wrap;html=1;" vertex="1" parent="1">
          <mxGeometry x="650" y="290" width="140" height="90" as="geometry" />
        </mxCell>
        <mxCell id="Mmktj13D3EzcHy1BEU7q-65" value="Email" style="text;strokeColor=none;fillColor=none;align=left;verticalAlign=middle;spacingLeft=4;spacingRight=4;overflow=hidden;points=[[0,0.5],[1,0.5]];portConstraint=eastwest;rotatable=0;whiteSpace=wrap;html=1;" vertex="1" parent="Mmktj13D3EzcHy1BEU7q-63">
          <mxGeometry y="30" width="140" height="30" as="geometry" />
        </mxCell>
        <mxCell id="Mmktj13D3EzcHy1BEU7q-66" value="Password" style="text;strokeColor=none;fillColor=none;align=left;verticalAlign=middle;spacingLeft=4;spacingRight=4;overflow=hidden;points=[[0,0.5],[1,0.5]];portConstraint=eastwest;rotatable=0;whiteSpace=wrap;html=1;" vertex="1" parent="Mmktj13D3EzcHy1BEU7q-63">
          <mxGeometry y="60" width="140" height="30" as="geometry" />
        </mxCell>
        <mxCell id="Mmktj13D3EzcHy1BEU7q-67" value="" style="endArrow=classic;html=1;rounded=0;entryX=0.5;entryY=0;entryDx=0;entryDy=0;" edge="1" parent="1" target="Mmktj13D3EzcHy1BEU7q-63">
          <mxGeometry width="50" height="50" relative="1" as="geometry">
            <mxPoint x="720" y="200" as="sourcePoint" />
            <mxPoint x="720" y="280" as="targetPoint" />
          </mxGeometry>
        </mxCell>
        <mxCell id="Mmktj13D3EzcHy1BEU7q-72" value="" style="endArrow=classic;html=1;rounded=0;exitX=0.5;exitY=1;exitDx=0;exitDy=0;" edge="1" parent="1">
          <mxGeometry width="50" height="50" relative="1" as="geometry">
            <mxPoint x="89.16999999999999" y="85" as="sourcePoint" />
            <mxPoint x="89.16999999999999" y="200" as="targetPoint" />
          </mxGeometry>
        </mxCell>
        <mxCell id="Mmktj13D3EzcHy1BEU7q-73" value="" style="endArrow=classic;html=1;rounded=0;exitX=0.5;exitY=1;exitDx=0;exitDy=0;" edge="1" parent="1">
          <mxGeometry width="50" height="50" relative="1" as="geometry">
            <mxPoint x="829.17" y="85" as="sourcePoint" />
            <mxPoint x="829.17" y="200" as="targetPoint" />
          </mxGeometry>
        </mxCell>
        <mxCell id="Mmktj13D3EzcHy1BEU7q-74" value="&lt;font size=&quot;3&quot;&gt;Register&lt;/font&gt;" style="swimlane;fontStyle=0;childLayout=stackLayout;horizontal=1;startSize=30;horizontalStack=0;resizeParent=1;resizeParentMax=0;resizeLast=0;collapsible=1;marginBottom=0;whiteSpace=wrap;html=1;" vertex="1" parent="1">
          <mxGeometry x="270" y="550" width="250" height="210" as="geometry" />
        </mxCell>
        <mxCell id="Mmktj13D3EzcHy1BEU7q-75" value="Username" style="text;strokeColor=none;fillColor=none;align=left;verticalAlign=middle;spacingLeft=4;spacingRight=4;overflow=hidden;points=[[0,0.5],[1,0.5]];portConstraint=eastwest;rotatable=0;whiteSpace=wrap;html=1;" vertex="1" parent="Mmktj13D3EzcHy1BEU7q-74">
          <mxGeometry y="30" width="250" height="30" as="geometry" />
        </mxCell>
        <mxCell id="Mmktj13D3EzcHy1BEU7q-76" value="Email" style="text;strokeColor=none;fillColor=none;align=left;verticalAlign=middle;spacingLeft=4;spacingRight=4;overflow=hidden;points=[[0,0.5],[1,0.5]];portConstraint=eastwest;rotatable=0;whiteSpace=wrap;html=1;" vertex="1" parent="Mmktj13D3EzcHy1BEU7q-74">
          <mxGeometry y="60" width="250" height="30" as="geometry" />
        </mxCell>
        <mxCell id="Mmktj13D3EzcHy1BEU7q-77" value="Password" style="text;strokeColor=none;fillColor=none;align=left;verticalAlign=middle;spacingLeft=4;spacingRight=4;overflow=hidden;points=[[0,0.5],[1,0.5]];portConstraint=eastwest;rotatable=0;whiteSpace=wrap;html=1;" vertex="1" parent="Mmktj13D3EzcHy1BEU7q-74">
          <mxGeometry y="90" width="250" height="30" as="geometry" />
        </mxCell>
        <mxCell id="Mmktj13D3EzcHy1BEU7q-86" value="Confirm Password" style="text;strokeColor=none;fillColor=none;align=left;verticalAlign=middle;spacingLeft=4;spacingRight=4;overflow=hidden;points=[[0,0.5],[1,0.5]];portConstraint=eastwest;rotatable=0;whiteSpace=wrap;html=1;" vertex="1" parent="Mmktj13D3EzcHy1BEU7q-74">
          <mxGeometry y="120" width="250" height="30" as="geometry" />
        </mxCell>
        <mxCell id="Mmktj13D3EzcHy1BEU7q-85" value="Mobile Number" style="text;strokeColor=none;fillColor=none;align=left;verticalAlign=middle;spacingLeft=4;spacingRight=4;overflow=hidden;points=[[0,0.5],[1,0.5]];portConstraint=eastwest;rotatable=0;whiteSpace=wrap;html=1;" vertex="1" parent="Mmktj13D3EzcHy1BEU7q-74">
          <mxGeometry y="150" width="250" height="30" as="geometry" />
        </mxCell>
        <mxCell id="Mmktj13D3EzcHy1BEU7q-87" value="Role" style="text;strokeColor=none;fillColor=none;align=left;verticalAlign=middle;spacingLeft=4;spacingRight=4;overflow=hidden;points=[[0,0.5],[1,0.5]];portConstraint=eastwest;rotatable=0;whiteSpace=wrap;html=1;" vertex="1" parent="Mmktj13D3EzcHy1BEU7q-74">
          <mxGeometry y="180" width="250" height="30" as="geometry" />
        </mxCell>
        <mxCell id="Mmktj13D3EzcHy1BEU7q-78" value="" style="curved=1;endArrow=classic;html=1;rounded=0;entryX=0.25;entryY=0;entryDx=0;entryDy=0;" edge="1" parent="1" target="Mmktj13D3EzcHy1BEU7q-74">
          <mxGeometry width="50" height="50" relative="1" as="geometry">
            <mxPoint x="170" y="200" as="sourcePoint" />
            <mxPoint x="200" y="305" as="targetPoint" />
            <Array as="points">
              <mxPoint x="200" y="360" />
            </Array>
          </mxGeometry>
        </mxCell>
        <mxCell id="Mmktj13D3EzcHy1BEU7q-79" value="" style="curved=1;endArrow=classic;html=1;rounded=0;entryX=0.5;entryY=0;entryDx=0;entryDy=0;" edge="1" parent="1" target="Mmktj13D3EzcHy1BEU7q-74">
          <mxGeometry width="50" height="50" relative="1" as="geometry">
            <mxPoint x="550" y="200" as="sourcePoint" />
            <mxPoint x="470" y="370" as="targetPoint" />
            <Array as="points">
              <mxPoint x="420" y="370" />
            </Array>
          </mxGeometry>
        </mxCell>
        <mxCell id="Mmktj13D3EzcHy1BEU7q-83" value="" style="curved=1;endArrow=classic;html=1;rounded=0;entryX=0.75;entryY=0;entryDx=0;entryDy=0;" edge="1" parent="1" target="Mmktj13D3EzcHy1BEU7q-74">
          <mxGeometry width="50" height="50" relative="1" as="geometry">
            <mxPoint x="930" y="200" as="sourcePoint" />
            <mxPoint x="1020" y="400" as="targetPoint" />
            <Array as="points">
              <mxPoint x="970" y="400" />
            </Array>
          </mxGeometry>
        </mxCell>
        <mxCell id="Mmktj13D3EzcHy1BEU7q-88" value="" style="endArrow=classic;html=1;rounded=0;exitX=0.502;exitY=1.067;exitDx=0;exitDy=0;exitPerimeter=0;" edge="1" parent="1" source="I-_VDOMfaE9_wKfrPcR0-34">
          <mxGeometry width="50" height="50" relative="1" as="geometry">
            <mxPoint x="-65" y="540" as="sourcePoint" />
            <mxPoint x="-40" y="760" as="targetPoint" />
          </mxGeometry>
        </mxCell>
        <mxCell id="Mmktj13D3EzcHy1BEU7q-92" value="" style="endArrow=none;dashed=1;html=1;dashPattern=1 3;strokeWidth=2;rounded=0;" edge="1" parent="1">
          <mxGeometry width="50" height="50" relative="1" as="geometry">
            <mxPoint x="210" y="480" as="sourcePoint" />
            <mxPoint x="330" y="480" as="targetPoint" />
          </mxGeometry>
        </mxCell>
        <mxCell id="Mmktj13D3EzcHy1BEU7q-94" value="" style="endArrow=none;html=1;rounded=0;" edge="1" parent="1">
          <mxGeometry width="50" height="50" relative="1" as="geometry">
            <mxPoint x="210" y="800" as="sourcePoint" />
            <mxPoint x="210" y="480" as="targetPoint" />
          </mxGeometry>
        </mxCell>
        <mxCell id="Mmktj13D3EzcHy1BEU7q-95" value="" style="endArrow=none;html=1;rounded=0;" edge="1" parent="1">
          <mxGeometry width="50" height="50" relative="1" as="geometry">
            <mxPoint x="210" y="800" as="sourcePoint" />
            <mxPoint x="370" y="800" as="targetPoint" />
          </mxGeometry>
        </mxCell>
        <mxCell id="Mmktj13D3EzcHy1BEU7q-96" value="" style="endArrow=classic;html=1;rounded=0;" edge="1" parent="1">
          <mxGeometry width="50" height="50" relative="1" as="geometry">
            <mxPoint x="370" y="800" as="sourcePoint" />
            <mxPoint x="370" y="920" as="targetPoint" />
          </mxGeometry>
        </mxCell>
        <mxCell id="Mmktj13D3EzcHy1BEU7q-97" value="" style="endArrow=none;html=1;rounded=0;exitX=0.31;exitY=1.138;exitDx=0;exitDy=0;exitPerimeter=0;" edge="1" parent="1" source="Mmktj13D3EzcHy1BEU7q-51">
          <mxGeometry width="50" height="50" relative="1" as="geometry">
            <mxPoint x="420" y="420" as="sourcePoint" />
            <mxPoint x="313" y="480" as="targetPoint" />
          </mxGeometry>
        </mxCell>
        <mxCell id="Mmktj13D3EzcHy1BEU7q-99" value="" style="endArrow=none;dashed=1;html=1;dashPattern=1 3;strokeWidth=2;rounded=0;" edge="1" parent="1">
          <mxGeometry width="50" height="50" relative="1" as="geometry">
            <mxPoint x="730" y="500" as="sourcePoint" />
            <mxPoint x="730" y="380" as="targetPoint" />
          </mxGeometry>
        </mxCell>
        <mxCell id="Mmktj13D3EzcHy1BEU7q-100" value="" style="endArrow=classic;html=1;rounded=0;" edge="1" parent="1">
          <mxGeometry width="50" height="50" relative="1" as="geometry">
            <mxPoint x="730" y="500" as="sourcePoint" />
            <mxPoint x="740" y="920" as="targetPoint" />
          </mxGeometry>
        </mxCell>
        <mxCell id="Mmktj13D3EzcHy1BEU7q-101" value="Landing Page" style="swimlane;fontStyle=0;childLayout=stackLayout;horizontal=1;startSize=30;horizontalStack=0;resizeParent=1;resizeParentMax=0;resizeLast=0;collapsible=1;marginBottom=0;whiteSpace=wrap;html=1;" vertex="1" parent="1">
          <mxGeometry x="-220" y="920" width="140" height="120" as="geometry" />
        </mxCell>
        <mxCell id="Mmktj13D3EzcHy1BEU7q-102" value="Home" style="text;strokeColor=none;fillColor=none;align=left;verticalAlign=middle;spacingLeft=4;spacingRight=4;overflow=hidden;points=[[0,0.5],[1,0.5]];portConstraint=eastwest;rotatable=0;whiteSpace=wrap;html=1;" vertex="1" parent="Mmktj13D3EzcHy1BEU7q-101">
          <mxGeometry y="30" width="140" height="30" as="geometry" />
        </mxCell>
        <mxCell id="Mmktj13D3EzcHy1BEU7q-103" value="Student" style="text;strokeColor=none;fillColor=none;align=left;verticalAlign=middle;spacingLeft=4;spacingRight=4;overflow=hidden;points=[[0,0.5],[1,0.5]];portConstraint=eastwest;rotatable=0;whiteSpace=wrap;html=1;" vertex="1" parent="Mmktj13D3EzcHy1BEU7q-101">
          <mxGeometry y="60" width="140" height="30" as="geometry" />
        </mxCell>
        <mxCell id="Mmktj13D3EzcHy1BEU7q-104" value="LogOut" style="text;strokeColor=none;fillColor=none;align=left;verticalAlign=middle;spacingLeft=4;spacingRight=4;overflow=hidden;points=[[0,0.5],[1,0.5]];portConstraint=eastwest;rotatable=0;whiteSpace=wrap;html=1;" vertex="1" parent="Mmktj13D3EzcHy1BEU7q-101">
          <mxGeometry y="90" width="140" height="30" as="geometry" />
        </mxCell>
        <mxCell id="Mmktj13D3EzcHy1BEU7q-105" value="Landing Page" style="swimlane;fontStyle=0;childLayout=stackLayout;horizontal=1;startSize=30;horizontalStack=0;resizeParent=1;resizeParentMax=0;resizeLast=0;collapsible=1;marginBottom=0;whiteSpace=wrap;html=1;" vertex="1" parent="1">
          <mxGeometry x="300" y="920" width="140" height="120" as="geometry" />
        </mxCell>
        <mxCell id="Mmktj13D3EzcHy1BEU7q-106" value="Home" style="text;strokeColor=none;fillColor=none;align=left;verticalAlign=middle;spacingLeft=4;spacingRight=4;overflow=hidden;points=[[0,0.5],[1,0.5]];portConstraint=eastwest;rotatable=0;whiteSpace=wrap;html=1;" vertex="1" parent="Mmktj13D3EzcHy1BEU7q-105">
          <mxGeometry y="30" width="140" height="30" as="geometry" />
        </mxCell>
        <mxCell id="Mmktj13D3EzcHy1BEU7q-107" value="OfficeStaff" style="text;strokeColor=none;fillColor=none;align=left;verticalAlign=middle;spacingLeft=4;spacingRight=4;overflow=hidden;points=[[0,0.5],[1,0.5]];portConstraint=eastwest;rotatable=0;whiteSpace=wrap;html=1;" vertex="1" parent="Mmktj13D3EzcHy1BEU7q-105">
          <mxGeometry y="60" width="140" height="30" as="geometry" />
        </mxCell>
        <mxCell id="Mmktj13D3EzcHy1BEU7q-108" value="LogOut" style="text;strokeColor=none;fillColor=none;align=left;verticalAlign=middle;spacingLeft=4;spacingRight=4;overflow=hidden;points=[[0,0.5],[1,0.5]];portConstraint=eastwest;rotatable=0;whiteSpace=wrap;html=1;" vertex="1" parent="Mmktj13D3EzcHy1BEU7q-105">
          <mxGeometry y="90" width="140" height="30" as="geometry" />
        </mxCell>
        <mxCell id="Mmktj13D3EzcHy1BEU7q-109" value="Landing Page" style="swimlane;fontStyle=0;childLayout=stackLayout;horizontal=1;startSize=30;horizontalStack=0;resizeParent=1;resizeParentMax=0;resizeLast=0;collapsible=1;marginBottom=0;whiteSpace=wrap;html=1;" vertex="1" parent="1">
          <mxGeometry x="670" y="920" width="140" height="120" as="geometry" />
        </mxCell>
        <mxCell id="Mmktj13D3EzcHy1BEU7q-110" value="Home" style="text;strokeColor=none;fillColor=none;align=left;verticalAlign=middle;spacingLeft=4;spacingRight=4;overflow=hidden;points=[[0,0.5],[1,0.5]];portConstraint=eastwest;rotatable=0;whiteSpace=wrap;html=1;" vertex="1" parent="Mmktj13D3EzcHy1BEU7q-109">
          <mxGeometry y="30" width="140" height="30" as="geometry" />
        </mxCell>
        <mxCell id="Mmktj13D3EzcHy1BEU7q-111" value="Admin" style="text;strokeColor=none;fillColor=none;align=left;verticalAlign=middle;spacingLeft=4;spacingRight=4;overflow=hidden;points=[[0,0.5],[1,0.5]];portConstraint=eastwest;rotatable=0;whiteSpace=wrap;html=1;" vertex="1" parent="Mmktj13D3EzcHy1BEU7q-109">
          <mxGeometry y="60" width="140" height="30" as="geometry" />
        </mxCell>
        <mxCell id="Mmktj13D3EzcHy1BEU7q-112" value="LogOut" style="text;strokeColor=none;fillColor=none;align=left;verticalAlign=middle;spacingLeft=4;spacingRight=4;overflow=hidden;points=[[0,0.5],[1,0.5]];portConstraint=eastwest;rotatable=0;whiteSpace=wrap;html=1;" vertex="1" parent="Mmktj13D3EzcHy1BEU7q-109">
          <mxGeometry y="90" width="140" height="30" as="geometry" />
        </mxCell>
        <mxCell id="Mmktj13D3EzcHy1BEU7q-114" value="" style="endArrow=none;html=1;rounded=0;entryX=0.464;entryY=1.218;entryDx=0;entryDy=0;entryPerimeter=0;" edge="1" parent="1">
          <mxGeometry width="50" height="50" relative="1" as="geometry">
            <mxPoint x="-150" y="1140" as="sourcePoint" />
            <mxPoint x="-149.99999999999952" y="1046.54" as="targetPoint" />
          </mxGeometry>
        </mxCell>
        <mxCell id="Mmktj13D3EzcHy1BEU7q-116" value="View Courses" style="swimlane;fontStyle=0;childLayout=stackLayout;horizontal=1;startSize=30;horizontalStack=0;resizeParent=1;resizeParentMax=0;resizeLast=0;collapsible=1;marginBottom=0;whiteSpace=wrap;html=1;" vertex="1" parent="1">
          <mxGeometry x="-420" y="1200" width="140" height="150" as="geometry" />
        </mxCell>
        <mxCell id="Mmktj13D3EzcHy1BEU7q-117" value="CourseName" style="text;strokeColor=none;fillColor=none;align=left;verticalAlign=middle;spacingLeft=4;spacingRight=4;overflow=hidden;points=[[0,0.5],[1,0.5]];portConstraint=eastwest;rotatable=0;whiteSpace=wrap;html=1;" vertex="1" parent="Mmktj13D3EzcHy1BEU7q-116">
          <mxGeometry y="30" width="140" height="30" as="geometry" />
        </mxCell>
        <mxCell id="Mmktj13D3EzcHy1BEU7q-201" value="Description" style="text;strokeColor=none;fillColor=none;align=left;verticalAlign=middle;spacingLeft=4;spacingRight=4;overflow=hidden;points=[[0,0.5],[1,0.5]];portConstraint=eastwest;rotatable=0;whiteSpace=wrap;html=1;" vertex="1" parent="Mmktj13D3EzcHy1BEU7q-116">
          <mxGeometry y="60" width="140" height="30" as="geometry" />
        </mxCell>
        <mxCell id="Mmktj13D3EzcHy1BEU7q-202" value="Duration" style="text;strokeColor=none;fillColor=none;align=left;verticalAlign=middle;spacingLeft=4;spacingRight=4;overflow=hidden;points=[[0,0.5],[1,0.5]];portConstraint=eastwest;rotatable=0;whiteSpace=wrap;html=1;" vertex="1" parent="Mmktj13D3EzcHy1BEU7q-116">
          <mxGeometry y="90" width="140" height="30" as="geometry" />
        </mxCell>
        <mxCell id="Mmktj13D3EzcHy1BEU7q-203" value="FeeAmount" style="text;strokeColor=none;fillColor=none;align=left;verticalAlign=middle;spacingLeft=4;spacingRight=4;overflow=hidden;points=[[0,0.5],[1,0.5]];portConstraint=eastwest;rotatable=0;whiteSpace=wrap;html=1;" vertex="1" parent="Mmktj13D3EzcHy1BEU7q-116">
          <mxGeometry y="120" width="140" height="30" as="geometry" />
        </mxCell>
        <mxCell id="Mmktj13D3EzcHy1BEU7q-120" value="Add Queries" style="swimlane;fontStyle=0;childLayout=stackLayout;horizontal=1;startSize=30;horizontalStack=0;resizeParent=1;resizeParentMax=0;resizeLast=0;collapsible=1;marginBottom=0;whiteSpace=wrap;html=1;" vertex="1" parent="1">
          <mxGeometry x="-250" y="1200" width="140" height="180" as="geometry" />
        </mxCell>
        <mxCell id="Mmktj13D3EzcHy1BEU7q-121" value="Enquiry Date" style="text;strokeColor=none;fillColor=none;align=left;verticalAlign=middle;spacingLeft=4;spacingRight=4;overflow=hidden;points=[[0,0.5],[1,0.5]];portConstraint=eastwest;rotatable=0;whiteSpace=wrap;html=1;" vertex="1" parent="Mmktj13D3EzcHy1BEU7q-120">
          <mxGeometry y="30" width="140" height="30" as="geometry" />
        </mxCell>
        <mxCell id="Mmktj13D3EzcHy1BEU7q-122" value="Course Name" style="text;strokeColor=none;fillColor=none;align=left;verticalAlign=middle;spacingLeft=4;spacingRight=4;overflow=hidden;points=[[0,0.5],[1,0.5]];portConstraint=eastwest;rotatable=0;whiteSpace=wrap;html=1;" vertex="1" parent="Mmktj13D3EzcHy1BEU7q-120">
          <mxGeometry y="60" width="140" height="30" as="geometry" />
        </mxCell>
        <mxCell id="Mmktj13D3EzcHy1BEU7q-123" value="Description" style="text;strokeColor=none;fillColor=none;align=left;verticalAlign=middle;spacingLeft=4;spacingRight=4;overflow=hidden;points=[[0,0.5],[1,0.5]];portConstraint=eastwest;rotatable=0;whiteSpace=wrap;html=1;" vertex="1" parent="Mmktj13D3EzcHy1BEU7q-120">
          <mxGeometry y="90" width="140" height="30" as="geometry" />
        </mxCell>
        <mxCell id="Mmktj13D3EzcHy1BEU7q-124" value="Email ID" style="text;strokeColor=none;fillColor=none;align=left;verticalAlign=middle;spacingLeft=4;spacingRight=4;overflow=hidden;points=[[0,0.5],[1,0.5]];portConstraint=eastwest;rotatable=0;whiteSpace=wrap;html=1;" vertex="1" parent="Mmktj13D3EzcHy1BEU7q-120">
          <mxGeometry y="120" width="140" height="30" as="geometry" />
        </mxCell>
        <mxCell id="Mmktj13D3EzcHy1BEU7q-125" value="Enquiry Type" style="text;strokeColor=none;fillColor=none;align=left;verticalAlign=middle;spacingLeft=4;spacingRight=4;overflow=hidden;points=[[0,0.5],[1,0.5]];portConstraint=eastwest;rotatable=0;whiteSpace=wrap;html=1;" vertex="1" parent="Mmktj13D3EzcHy1BEU7q-120">
          <mxGeometry y="150" width="140" height="30" as="geometry" />
        </mxCell>
        <mxCell id="Mmktj13D3EzcHy1BEU7q-126" value="View Enquiries" style="swimlane;fontStyle=0;childLayout=stackLayout;horizontal=1;startSize=30;horizontalStack=0;resizeParent=1;resizeParentMax=0;resizeLast=0;collapsible=1;marginBottom=0;whiteSpace=wrap;html=1;" vertex="1" parent="1">
          <mxGeometry x="-80" y="1200" width="140" height="150" as="geometry" />
        </mxCell>
        <mxCell id="Mmktj13D3EzcHy1BEU7q-127" value="CourseName" style="text;strokeColor=none;fillColor=none;align=left;verticalAlign=middle;spacingLeft=4;spacingRight=4;overflow=hidden;points=[[0,0.5],[1,0.5]];portConstraint=eastwest;rotatable=0;whiteSpace=wrap;html=1;" vertex="1" parent="Mmktj13D3EzcHy1BEU7q-126">
          <mxGeometry y="30" width="140" height="30" as="geometry" />
        </mxCell>
        <mxCell id="Mmktj13D3EzcHy1BEU7q-128" value="Description" style="text;strokeColor=none;fillColor=none;align=left;verticalAlign=middle;spacingLeft=4;spacingRight=4;overflow=hidden;points=[[0,0.5],[1,0.5]];portConstraint=eastwest;rotatable=0;whiteSpace=wrap;html=1;" vertex="1" parent="Mmktj13D3EzcHy1BEU7q-126">
          <mxGeometry y="60" width="140" height="30" as="geometry" />
        </mxCell>
        <mxCell id="Mmktj13D3EzcHy1BEU7q-129" value="Email" style="text;strokeColor=none;fillColor=none;align=left;verticalAlign=middle;spacingLeft=4;spacingRight=4;overflow=hidden;points=[[0,0.5],[1,0.5]];portConstraint=eastwest;rotatable=0;whiteSpace=wrap;html=1;" vertex="1" parent="Mmktj13D3EzcHy1BEU7q-126">
          <mxGeometry y="90" width="140" height="30" as="geometry" />
        </mxCell>
        <mxCell id="Mmktj13D3EzcHy1BEU7q-204" value="EnquiryType" style="text;strokeColor=none;fillColor=none;align=left;verticalAlign=middle;spacingLeft=4;spacingRight=4;overflow=hidden;points=[[0,0.5],[1,0.5]];portConstraint=eastwest;rotatable=0;whiteSpace=wrap;html=1;" vertex="1" parent="Mmktj13D3EzcHy1BEU7q-126">
          <mxGeometry y="120" width="140" height="30" as="geometry" />
        </mxCell>
        <mxCell id="Mmktj13D3EzcHy1BEU7q-131" value="" style="endArrow=classic;html=1;rounded=0;entryX=0.5;entryY=0;entryDx=0;entryDy=0;" edge="1" parent="1" target="Mmktj13D3EzcHy1BEU7q-116">
          <mxGeometry width="50" height="50" relative="1" as="geometry">
            <mxPoint x="-150" y="1140" as="sourcePoint" />
            <mxPoint x="-230" y="1110" as="targetPoint" />
          </mxGeometry>
        </mxCell>
        <mxCell id="Mmktj13D3EzcHy1BEU7q-132" value="" style="endArrow=classic;html=1;rounded=0;entryX=0.5;entryY=0;entryDx=0;entryDy=0;" edge="1" parent="1" target="Mmktj13D3EzcHy1BEU7q-120">
          <mxGeometry width="50" height="50" relative="1" as="geometry">
            <mxPoint x="-150" y="1140" as="sourcePoint" />
            <mxPoint x="350" y="1070" as="targetPoint" />
          </mxGeometry>
        </mxCell>
        <mxCell id="Mmktj13D3EzcHy1BEU7q-133" value="" style="endArrow=classic;html=1;rounded=0;entryX=0.5;entryY=0;entryDx=0;entryDy=0;" edge="1" parent="1" target="Mmktj13D3EzcHy1BEU7q-126">
          <mxGeometry width="50" height="50" relative="1" as="geometry">
            <mxPoint x="-150" y="1140" as="sourcePoint" />
            <mxPoint x="30" y="1110" as="targetPoint" />
          </mxGeometry>
        </mxCell>
        <mxCell id="Mmktj13D3EzcHy1BEU7q-166" value="Payment" style="swimlane;fontStyle=0;childLayout=stackLayout;horizontal=1;startSize=30;horizontalStack=0;resizeParent=1;resizeParentMax=0;resizeLast=0;collapsible=1;marginBottom=0;whiteSpace=wrap;html=1;" vertex="1" parent="1">
          <mxGeometry x="90" y="1200" width="140" height="180" as="geometry" />
        </mxCell>
        <mxCell id="Mmktj13D3EzcHy1BEU7q-167" value="StudentId" style="text;strokeColor=none;fillColor=none;align=left;verticalAlign=middle;spacingLeft=4;spacingRight=4;overflow=hidden;points=[[0,0.5],[1,0.5]];portConstraint=eastwest;rotatable=0;whiteSpace=wrap;html=1;" vertex="1" parent="Mmktj13D3EzcHy1BEU7q-166">
          <mxGeometry y="30" width="140" height="30" as="geometry" />
        </mxCell>
        <mxCell id="Mmktj13D3EzcHy1BEU7q-168" value="CourseName" style="text;strokeColor=none;fillColor=none;align=left;verticalAlign=middle;spacingLeft=4;spacingRight=4;overflow=hidden;points=[[0,0.5],[1,0.5]];portConstraint=eastwest;rotatable=0;whiteSpace=wrap;html=1;" vertex="1" parent="Mmktj13D3EzcHy1BEU7q-166">
          <mxGeometry y="60" width="140" height="30" as="geometry" />
        </mxCell>
        <mxCell id="Mmktj13D3EzcHy1BEU7q-169" value="TotalAmount" style="text;strokeColor=none;fillColor=none;align=left;verticalAlign=middle;spacingLeft=4;spacingRight=4;overflow=hidden;points=[[0,0.5],[1,0.5]];portConstraint=eastwest;rotatable=0;whiteSpace=wrap;html=1;" vertex="1" parent="Mmktj13D3EzcHy1BEU7q-166">
          <mxGeometry y="90" width="140" height="30" as="geometry" />
        </mxCell>
        <mxCell id="Mmktj13D3EzcHy1BEU7q-170" value="ModeOfPayment" style="text;strokeColor=none;fillColor=none;align=left;verticalAlign=middle;spacingLeft=4;spacingRight=4;overflow=hidden;points=[[0,0.5],[1,0.5]];portConstraint=eastwest;rotatable=0;whiteSpace=wrap;html=1;" vertex="1" parent="Mmktj13D3EzcHy1BEU7q-166">
          <mxGeometry y="120" width="140" height="30" as="geometry" />
        </mxCell>
        <mxCell id="Mmktj13D3EzcHy1BEU7q-171" value="PaymentDate" style="text;strokeColor=none;fillColor=none;align=left;verticalAlign=middle;spacingLeft=4;spacingRight=4;overflow=hidden;points=[[0,0.5],[1,0.5]];portConstraint=eastwest;rotatable=0;whiteSpace=wrap;html=1;" vertex="1" parent="Mmktj13D3EzcHy1BEU7q-166">
          <mxGeometry y="150" width="140" height="30" as="geometry" />
        </mxCell>
        <mxCell id="Mmktj13D3EzcHy1BEU7q-172" value="" style="endArrow=classic;html=1;rounded=0;entryX=0.5;entryY=0;entryDx=0;entryDy=0;" edge="1" parent="1" target="Mmktj13D3EzcHy1BEU7q-166">
          <mxGeometry width="50" height="50" relative="1" as="geometry">
            <mxPoint x="-150" y="1140" as="sourcePoint" />
            <mxPoint x="390" y="1130" as="targetPoint" />
          </mxGeometry>
        </mxCell>
        <mxCell id="Mmktj13D3EzcHy1BEU7q-174" value="" style="endArrow=none;html=1;rounded=0;" edge="1" parent="1">
          <mxGeometry width="50" height="50" relative="1" as="geometry">
            <mxPoint x="-150" y="760" as="sourcePoint" />
            <mxPoint x="-40" y="760" as="targetPoint" />
          </mxGeometry>
        </mxCell>
        <mxCell id="Mmktj13D3EzcHy1BEU7q-175" value="" style="endArrow=classic;html=1;rounded=0;" edge="1" parent="1">
          <mxGeometry width="50" height="50" relative="1" as="geometry">
            <mxPoint x="-150" y="760" as="sourcePoint" />
            <mxPoint x="-150" y="920" as="targetPoint" />
          </mxGeometry>
        </mxCell>
        <mxCell id="Mmktj13D3EzcHy1BEU7q-176" value="" style="endArrow=none;html=1;rounded=0;entryX=0.416;entryY=1.111;entryDx=0;entryDy=0;entryPerimeter=0;" edge="1" parent="1" target="Mmktj13D3EzcHy1BEU7q-108">
          <mxGeometry width="50" height="50" relative="1" as="geometry">
            <mxPoint x="360" y="1170" as="sourcePoint" />
            <mxPoint x="350" y="1050" as="targetPoint" />
          </mxGeometry>
        </mxCell>
        <mxCell id="Mmktj13D3EzcHy1BEU7q-177" value="Reply Queries" style="swimlane;fontStyle=0;childLayout=stackLayout;horizontal=1;startSize=30;horizontalStack=0;resizeParent=1;resizeParentMax=0;resizeLast=0;collapsible=1;marginBottom=0;whiteSpace=wrap;html=1;" vertex="1" parent="1">
          <mxGeometry x="300" y="1169" width="140" height="90" as="geometry" />
        </mxCell>
        <mxCell id="Mmktj13D3EzcHy1BEU7q-179" value="EnquiryType" style="text;strokeColor=none;fillColor=none;align=left;verticalAlign=middle;spacingLeft=4;spacingRight=4;overflow=hidden;points=[[0,0.5],[1,0.5]];portConstraint=eastwest;rotatable=0;whiteSpace=wrap;html=1;" vertex="1" parent="Mmktj13D3EzcHy1BEU7q-177">
          <mxGeometry y="30" width="140" height="30" as="geometry" />
        </mxCell>
        <mxCell id="Mmktj13D3EzcHy1BEU7q-178" value="Description" style="text;strokeColor=none;fillColor=none;align=left;verticalAlign=middle;spacingLeft=4;spacingRight=4;overflow=hidden;points=[[0,0.5],[1,0.5]];portConstraint=eastwest;rotatable=0;whiteSpace=wrap;html=1;" vertex="1" parent="Mmktj13D3EzcHy1BEU7q-177">
          <mxGeometry y="60" width="140" height="30" as="geometry" />
        </mxCell>
        <mxCell id="Mmktj13D3EzcHy1BEU7q-182" value="" style="curved=1;endArrow=classic;html=1;rounded=0;exitX=0;exitY=0.5;exitDx=0;exitDy=0;entryX=0.004;entryY=0.107;entryDx=0;entryDy=0;entryPerimeter=0;" edge="1" parent="1" source="Mmktj13D3EzcHy1BEU7q-107" target="Mmktj13D3EzcHy1BEU7q-117">
          <mxGeometry width="50" height="50" relative="1" as="geometry">
            <mxPoint x="180" y="980" as="sourcePoint" />
            <mxPoint x="-470" y="1230" as="targetPoint" />
            <Array as="points">
              <mxPoint x="230" y="980" />
              <mxPoint x="150" y="995" />
              <mxPoint x="70" y="1030" />
              <mxPoint x="-470" y="1180" />
            </Array>
          </mxGeometry>
        </mxCell>
        <mxCell id="Mmktj13D3EzcHy1BEU7q-184" value="" style="curved=1;endArrow=classic;html=1;rounded=0;exitX=0;exitY=0.5;exitDx=0;exitDy=0;entryX=0.75;entryY=0;entryDx=0;entryDy=0;" edge="1" parent="1" source="Mmktj13D3EzcHy1BEU7q-108" target="Mmktj13D3EzcHy1BEU7q-126">
          <mxGeometry width="50" height="50" relative="1" as="geometry">
            <mxPoint x="210" y="1090" as="sourcePoint" />
            <mxPoint x="260" y="1040" as="targetPoint" />
            <Array as="points">
              <mxPoint x="260" y="1090" />
              <mxPoint x="210" y="1040" />
            </Array>
          </mxGeometry>
        </mxCell>
        <mxCell id="Mmktj13D3EzcHy1BEU7q-188" value="" style="endArrow=none;html=1;rounded=0;entryX=0.487;entryY=0.985;entryDx=0;entryDy=0;entryPerimeter=0;" edge="1" parent="1" target="Mmktj13D3EzcHy1BEU7q-112">
          <mxGeometry width="50" height="50" relative="1" as="geometry">
            <mxPoint x="738" y="1120" as="sourcePoint" />
            <mxPoint x="890" y="1080" as="targetPoint" />
          </mxGeometry>
        </mxCell>
        <mxCell id="Mmktj13D3EzcHy1BEU7q-190" value="Add Courses" style="swimlane;fontStyle=0;childLayout=stackLayout;horizontal=1;startSize=30;horizontalStack=0;resizeParent=1;resizeParentMax=0;resizeLast=0;collapsible=1;marginBottom=0;whiteSpace=wrap;html=1;" vertex="1" parent="1">
          <mxGeometry x="580" y="1169" width="140" height="150" as="geometry" />
        </mxCell>
        <mxCell id="Mmktj13D3EzcHy1BEU7q-191" value="CourseName" style="text;strokeColor=none;fillColor=none;align=left;verticalAlign=middle;spacingLeft=4;spacingRight=4;overflow=hidden;points=[[0,0.5],[1,0.5]];portConstraint=eastwest;rotatable=0;whiteSpace=wrap;html=1;" vertex="1" parent="Mmktj13D3EzcHy1BEU7q-190">
          <mxGeometry y="30" width="140" height="30" as="geometry" />
        </mxCell>
        <mxCell id="Mmktj13D3EzcHy1BEU7q-192" value="Description" style="text;strokeColor=none;fillColor=none;align=left;verticalAlign=middle;spacingLeft=4;spacingRight=4;overflow=hidden;points=[[0,0.5],[1,0.5]];portConstraint=eastwest;rotatable=0;whiteSpace=wrap;html=1;" vertex="1" parent="Mmktj13D3EzcHy1BEU7q-190">
          <mxGeometry y="60" width="140" height="30" as="geometry" />
        </mxCell>
        <mxCell id="Mmktj13D3EzcHy1BEU7q-193" value="Duration" style="text;strokeColor=none;fillColor=none;align=left;verticalAlign=middle;spacingLeft=4;spacingRight=4;overflow=hidden;points=[[0,0.5],[1,0.5]];portConstraint=eastwest;rotatable=0;whiteSpace=wrap;html=1;" vertex="1" parent="Mmktj13D3EzcHy1BEU7q-190">
          <mxGeometry y="90" width="140" height="30" as="geometry" />
        </mxCell>
        <mxCell id="Mmktj13D3EzcHy1BEU7q-195" value="FeesAmount" style="text;strokeColor=none;fillColor=none;align=left;verticalAlign=middle;spacingLeft=4;spacingRight=4;overflow=hidden;points=[[0,0.5],[1,0.5]];portConstraint=eastwest;rotatable=0;whiteSpace=wrap;html=1;" vertex="1" parent="Mmktj13D3EzcHy1BEU7q-190">
          <mxGeometry y="120" width="140" height="30" as="geometry" />
        </mxCell>
        <mxCell id="Mmktj13D3EzcHy1BEU7q-194" value="" style="endArrow=classic;html=1;rounded=0;" edge="1" parent="1">
          <mxGeometry width="50" height="50" relative="1" as="geometry">
            <mxPoint x="740" y="1120" as="sourcePoint" />
            <mxPoint x="670" y="1170" as="targetPoint" />
          </mxGeometry>
        </mxCell>
        <mxCell id="Mmktj13D3EzcHy1BEU7q-196" value="" style="endArrow=classic;html=1;rounded=0;" edge="1" parent="1" target="Mmktj13D3EzcHy1BEU7q-197">
          <mxGeometry width="50" height="50" relative="1" as="geometry">
            <mxPoint x="740" y="1120" as="sourcePoint" />
            <mxPoint x="810" y="1170" as="targetPoint" />
          </mxGeometry>
        </mxCell>
        <mxCell id="Mmktj13D3EzcHy1BEU7q-197" value="View Payment" style="swimlane;fontStyle=0;childLayout=stackLayout;horizontal=1;startSize=30;horizontalStack=0;resizeParent=1;resizeParentMax=0;resizeLast=0;collapsible=1;marginBottom=0;whiteSpace=wrap;html=1;" vertex="1" parent="1">
          <mxGeometry x="780" y="1169" width="140" height="270" as="geometry" />
        </mxCell>
        <mxCell id="Mmktj13D3EzcHy1BEU7q-198" value="PaymentId" style="text;strokeColor=none;fillColor=none;align=left;verticalAlign=middle;spacingLeft=4;spacingRight=4;overflow=hidden;points=[[0,0.5],[1,0.5]];portConstraint=eastwest;rotatable=0;whiteSpace=wrap;html=1;" vertex="1" parent="Mmktj13D3EzcHy1BEU7q-197">
          <mxGeometry y="30" width="140" height="30" as="geometry" />
        </mxCell>
        <mxCell id="Mmktj13D3EzcHy1BEU7q-199" value="StudentId" style="text;strokeColor=none;fillColor=none;align=left;verticalAlign=middle;spacingLeft=4;spacingRight=4;overflow=hidden;points=[[0,0.5],[1,0.5]];portConstraint=eastwest;rotatable=0;whiteSpace=wrap;html=1;" vertex="1" parent="Mmktj13D3EzcHy1BEU7q-197">
          <mxGeometry y="60" width="140" height="30" as="geometry" />
        </mxCell>
        <mxCell id="Mmktj13D3EzcHy1BEU7q-200" value="AdmissionId" style="text;strokeColor=none;fillColor=none;align=left;verticalAlign=middle;spacingLeft=4;spacingRight=4;overflow=hidden;points=[[0,0.5],[1,0.5]];portConstraint=eastwest;rotatable=0;whiteSpace=wrap;html=1;" vertex="1" parent="Mmktj13D3EzcHy1BEU7q-197">
          <mxGeometry y="90" width="140" height="30" as="geometry" />
        </mxCell>
        <mxCell id="Mmktj13D3EzcHy1BEU7q-205" value="CourseId" style="text;strokeColor=none;fillColor=none;align=left;verticalAlign=middle;spacingLeft=4;spacingRight=4;overflow=hidden;points=[[0,0.5],[1,0.5]];portConstraint=eastwest;rotatable=0;whiteSpace=wrap;html=1;" vertex="1" parent="Mmktj13D3EzcHy1BEU7q-197">
          <mxGeometry y="120" width="140" height="30" as="geometry" />
        </mxCell>
        <mxCell id="Mmktj13D3EzcHy1BEU7q-206" value="Status" style="text;strokeColor=none;fillColor=none;align=left;verticalAlign=middle;spacingLeft=4;spacingRight=4;overflow=hidden;points=[[0,0.5],[1,0.5]];portConstraint=eastwest;rotatable=0;whiteSpace=wrap;html=1;" vertex="1" parent="Mmktj13D3EzcHy1BEU7q-197">
          <mxGeometry y="150" width="140" height="30" as="geometry" />
        </mxCell>
        <mxCell id="Mmktj13D3EzcHy1BEU7q-207" value="TotalAmount" style="text;strokeColor=none;fillColor=none;align=left;verticalAlign=middle;spacingLeft=4;spacingRight=4;overflow=hidden;points=[[0,0.5],[1,0.5]];portConstraint=eastwest;rotatable=0;whiteSpace=wrap;html=1;" vertex="1" parent="Mmktj13D3EzcHy1BEU7q-197">
          <mxGeometry y="180" width="140" height="30" as="geometry" />
        </mxCell>
        <mxCell id="Mmktj13D3EzcHy1BEU7q-208" value="PaymentDate" style="text;strokeColor=none;fillColor=none;align=left;verticalAlign=middle;spacingLeft=4;spacingRight=4;overflow=hidden;points=[[0,0.5],[1,0.5]];portConstraint=eastwest;rotatable=0;whiteSpace=wrap;html=1;" vertex="1" parent="Mmktj13D3EzcHy1BEU7q-197">
          <mxGeometry y="210" width="140" height="30" as="geometry" />
        </mxCell>
        <mxCell id="Mmktj13D3EzcHy1BEU7q-209" value="ModeOfPayment" style="text;strokeColor=none;fillColor=none;align=left;verticalAlign=middle;spacingLeft=4;spacingRight=4;overflow=hidden;points=[[0,0.5],[1,0.5]];portConstraint=eastwest;rotatable=0;whiteSpace=wrap;html=1;" vertex="1" parent="Mmktj13D3EzcHy1BEU7q-197">
          <mxGeometry y="240" width="140" height="30" as="geometry" />
        </mxCell>
        <mxCell id="Mmktj13D3EzcHy1BEU7q-210" value="" style="curved=1;endArrow=classic;html=1;rounded=0;exitX=0;exitY=0.5;exitDx=0;exitDy=0;entryX=0.233;entryY=1.149;entryDx=0;entryDy=0;entryPerimeter=0;" edge="1" parent="1" source="Mmktj13D3EzcHy1BEU7q-111" target="Mmktj13D3EzcHy1BEU7q-203">
          <mxGeometry width="50" height="50" relative="1" as="geometry">
            <mxPoint x="540" y="1170" as="sourcePoint" />
            <mxPoint x="50" y="1480" as="targetPoint" />
            <Array as="points">
              <mxPoint x="590" y="1170" />
              <mxPoint x="540" y="1120" />
              <mxPoint x="420" y="1510" />
              <mxPoint x="200" y="1610" />
            </Array>
          </mxGeometry>
        </mxCell>
        <mxCell id="Mmktj13D3EzcHy1BEU7q-211" value="" style="curved=1;endArrow=classic;html=1;rounded=0;exitX=-0.071;exitY=0;exitDx=0;exitDy=0;exitPerimeter=0;entryX=0.446;entryY=1.196;entryDx=0;entryDy=0;entryPerimeter=0;" edge="1" parent="1" source="Mmktj13D3EzcHy1BEU7q-111" target="Mmktj13D3EzcHy1BEU7q-204">
          <mxGeometry width="50" height="50" relative="1" as="geometry">
            <mxPoint x="540" y="1170" as="sourcePoint" />
            <mxPoint x="90" y="1480" as="targetPoint" />
            <Array as="points">
              <mxPoint x="590" y="1170" />
              <mxPoint x="540" y="1120" />
              <mxPoint x="450" y="1370" />
              <mxPoint x="250" y="1510" />
            </Array>
          </mxGeometry>
        </mxCell>
        <mxCell id="Mmktj13D3EzcHy1BEU7q-212" value="LogIn successful" style="text;html=1;align=center;verticalAlign=middle;whiteSpace=wrap;rounded=0;" vertex="1" parent="1">
          <mxGeometry x="-40" y="480" width="60" height="30" as="geometry" />
        </mxCell>
        <mxCell id="Mmktj13D3EzcHy1BEU7q-213" value="LogIn successful" style="text;html=1;align=center;verticalAlign=middle;whiteSpace=wrap;rounded=0;" vertex="1" parent="1">
          <mxGeometry x="320" y="430" width="60" height="30" as="geometry" />
        </mxCell>
        <mxCell id="Mmktj13D3EzcHy1BEU7q-214" value="LogIn successful" style="text;html=1;align=center;verticalAlign=middle;whiteSpace=wrap;rounded=0;" vertex="1" parent="1">
          <mxGeometry x="740" y="560" width="60" height="30" as="geometry" />
        </mxCell>
        <mxCell id="Mmktj13D3EzcHy1BEU7q-215" value="Register" style="text;html=1;align=center;verticalAlign=middle;whiteSpace=wrap;rounded=0;" vertex="1" parent="1">
          <mxGeometry x="140" y="340" width="60" height="30" as="geometry" />
        </mxCell>
        <mxCell id="Mmktj13D3EzcHy1BEU7q-216" value="Register" style="text;html=1;align=center;verticalAlign=middle;whiteSpace=wrap;rounded=0;" vertex="1" parent="1">
          <mxGeometry x="930" y="320" width="60" height="30" as="geometry" />
        </mxCell>
        <mxCell id="Mmktj13D3EzcHy1BEU7q-217" value="Register" style="text;html=1;align=center;verticalAlign=middle;whiteSpace=wrap;rounded=0;" vertex="1" parent="1">
          <mxGeometry x="470" y="330" width="60" height="30" as="geometry" />
        </mxCell>
        <mxCell id="Mmktj13D3EzcHy1BEU7q-222" value="" style="endArrow=none;dashed=1;html=1;dashPattern=1 3;strokeWidth=2;rounded=0;entryX=0;entryY=0.5;entryDx=0;entryDy=0;exitX=1;exitY=0.5;exitDx=0;exitDy=0;" edge="1" parent="1" source="I-_VDOMfaE9_wKfrPcR0-34" target="Mmktj13D3EzcHy1BEU7q-77">
          <mxGeometry width="50" height="50" relative="1" as="geometry">
            <mxPoint x="150" y="640" as="sourcePoint" />
            <mxPoint x="200" y="590" as="targetPoint" />
          </mxGeometry>
        </mxCell>
        <mxCell id="Mmktj13D3EzcHy1BEU7q-223" value="" style="endArrow=classic;html=1;rounded=0;entryX=1;entryY=0.5;entryDx=0;entryDy=0;" edge="1" parent="1" target="I-_VDOMfaE9_wKfrPcR0-34">
          <mxGeometry width="50" height="50" relative="1" as="geometry">
            <mxPoint x="50" y="390" as="sourcePoint" />
            <mxPoint x="130" y="320" as="targetPoint" />
          </mxGeometry>
        </mxCell>
        <mxCell id="Mmktj13D3EzcHy1BEU7q-224" value="Registration Successful" style="text;html=1;align=center;verticalAlign=middle;whiteSpace=wrap;rounded=0;" vertex="1" parent="1">
          <mxGeometry x="80" y="500" width="60" height="30" as="geometry" />
        </mxCell>
        <mxCell id="Mmktj13D3EzcHy1BEU7q-225" value="" style="endArrow=none;dashed=1;html=1;dashPattern=1 3;strokeWidth=2;rounded=0;entryX=0.842;entryY=1.225;entryDx=0;entryDy=0;entryPerimeter=0;" edge="1" parent="1" target="Mmktj13D3EzcHy1BEU7q-51">
          <mxGeometry width="50" height="50" relative="1" as="geometry">
            <mxPoint x="423" y="550" as="sourcePoint" />
            <mxPoint x="473" y="500" as="targetPoint" />
          </mxGeometry>
        </mxCell>
        <mxCell id="Mmktj13D3EzcHy1BEU7q-226" value="" style="endArrow=classic;html=1;rounded=0;entryX=0.834;entryY=1.186;entryDx=0;entryDy=0;entryPerimeter=0;" edge="1" parent="1" target="Mmktj13D3EzcHy1BEU7q-51">
          <mxGeometry width="50" height="50" relative="1" as="geometry">
            <mxPoint x="400" y="440" as="sourcePoint" />
            <mxPoint x="670" y="410" as="targetPoint" />
          </mxGeometry>
        </mxCell>
        <mxCell id="Mmktj13D3EzcHy1BEU7q-227" value="Registration Successful" style="text;html=1;align=center;verticalAlign=middle;whiteSpace=wrap;rounded=0;" vertex="1" parent="1">
          <mxGeometry x="418" y="480" width="60" height="30" as="geometry" />
        </mxCell>
        <mxCell id="Mmktj13D3EzcHy1BEU7q-228" value="" style="endArrow=none;dashed=1;html=1;dashPattern=1 3;strokeWidth=2;rounded=0;exitX=1;exitY=0.5;exitDx=0;exitDy=0;entryX=0.156;entryY=1.147;entryDx=0;entryDy=0;entryPerimeter=0;" edge="1" parent="1" source="Mmktj13D3EzcHy1BEU7q-77" target="Mmktj13D3EzcHy1BEU7q-66">
          <mxGeometry width="50" height="50" relative="1" as="geometry">
            <mxPoint x="620" y="600" as="sourcePoint" />
            <mxPoint x="670" y="550" as="targetPoint" />
          </mxGeometry>
        </mxCell>
        <mxCell id="Mmktj13D3EzcHy1BEU7q-229" value="" style="endArrow=classic;html=1;rounded=0;entryX=0.172;entryY=1.108;entryDx=0;entryDy=0;entryPerimeter=0;" edge="1" parent="1" target="Mmktj13D3EzcHy1BEU7q-66">
          <mxGeometry width="50" height="50" relative="1" as="geometry">
            <mxPoint x="640" y="440" as="sourcePoint" />
            <mxPoint x="690" y="390" as="targetPoint" />
          </mxGeometry>
        </mxCell>
        <mxCell id="Mmktj13D3EzcHy1BEU7q-230" value="Registration Successful" style="text;html=1;align=center;verticalAlign=middle;whiteSpace=wrap;rounded=0;" vertex="1" parent="1">
          <mxGeometry x="590" y="540" width="60" height="30" as="geometry" />
        </mxCell>
      </root>
    </mxGraphModel>
  </diagram>
</mxfile>
